<svg xmlns="http://www.w3.org/2000/svg" viewBox="0 0 150 45">
  <g fill="#001489">
    <path d="M54.95 25.38a8.05 8.05 0 116.68-12.53l2.07-4.1a12.21 12.21 0 00-21 8.58 12.25 12.25 0 0021 8.57l-2.07-4.1a8.05 8.05 0 01-6.68 3.58zm29.75-11.2a8.75 8.75 0 00-8.75-8.75H67.2v23.8h4.2v-6.3h3.46l4.62 6.3h5.22l-5.18-7.07a8.75 8.75 0 005.18-7.98zM71.4 9.63h4.55a4.55 4.55 0 110 9.1H71.4zm33.53 19.6h4.62L98.7 5.08 87.85 29.23h4.58l2.52-5.6h7.5zm-8.09-9.8l1.86-4.1 1.85 4.1zm29.51-9.8l2.1-4.2h-15.4v23.8h4.2v-9.8h9.1v-4.2h-9.1v-5.6zm22.4-4.2h-17.5l2.1 4.2h4.55v19.6h4.2V9.63h4.55zM48.68 35.8c0-.7.7-1.25 1.4-1.25 1.2 0 1.65.8 1.65.8l.35-.17s-.56-.98-1.96-.98c-1.05 0-1.79.8-1.79 1.6 0 2.14 3.54 1.06 3.54 2.95 0 .8-.77 1.33-1.58 1.33-1.26 0-1.82-.88-1.82-.88l-.35.17s.74 1.06 2.17 1.06c1.23 0 1.96-.88 1.96-1.69 0-2.24-3.57-1.15-3.57-2.94zm13.16-1.5h-4.09l.17.35h1.68v5.7h.35v-5.7h1.68zm9.31 6.06h.39l-2.56-6.16-2.59 6.16h.35l.63-1.44h3.19zm-3.64-1.79l1.47-3.46 1.4 3.46zm14.56-2.24c0-1.12-.9-2.03-2.06-2.03h-2.03v6.06h.35V38.4h1.85l1.44 1.96h.45l-1.5-2.07a2 2 0 001.5-1.96zm-3.74-1.68h1.68a1.7 1.7 0 110 3.4h-1.68zm13.33-.35h-4.09l.17.35h1.68v5.7h.35v-5.7h1.72zm6.37 5.67v-2.45h2.66v-.35h-2.66v-2.52h3.05l.17-.35h-3.6v6.06h3.57l-.18-.35zm13.34-3.64c0-1.12-.91-2.03-2.07-2.03h-2.03v6.06h.35V38.4h1.86l1.43 1.96h.46l-1.5-2.07a2 2 0 001.5-1.96zm-3.75-1.68h1.68a1.7 1.7 0 110 3.4h-1.68zm19.57-.35h-.46l-3.29 4.06V34.3h-.35v6.06h.35v-1.44l1.2-1.47 2.1 2.9h.45l-2.31-3.18zm5.6 6.06V34.3h-.35v6.06zm9.31-6.06H138l.18.35h1.68v5.7h.35v-5.7h1.71z"/>
    <path fill-rule="evenodd" d="M24.71 3.29H8.15c-.35 0-.66.32-.66.7v5.39c0 .21.1.42.28.53l3.53 2.69v4.83a.7.7 0 00.46.63l.1.04c-.07 4.02-.7 7.38-1.85 9.8a90.6 90.6 0 01-5.39-.6c-.35 0-.63.18-.74.49l-2.1 7.32a.66.66 0 00.53.84c5.07.7 9.8 2.8 13.68 6.09a.66.66 0 00.88 0 26.46 26.46 0 0113.65-6.1.66.66 0 00.6-.83l-2.1-7.32a.7.7 0 00-.74-.49c-1.82.28-3.64.46-5.46.6a24.25 24.25 0 01-1.86-9.8l.18-.04a.7.7 0 00.42-.63V12.6l3.57-2.7c.14-.1.24-.31.24-.52V3.96a.66.66 0 00-.66-.67zm-4.48 13.65a13.05 13.05 0 01-.14.07 12.6 12.6 0 01-7.46-.03v-4.73a.63.63 0 00-.24-.52L8.82 9.1V4.66h15.22V9.1l-3.53 2.66a.7.7 0 00-.28.53zm.6-7.52a.67.67 0 01-.15-1.33c.5-.11.77-.35.77-.53.04-.17-.17-.45-.7-.73-.77-.39-2.1-.25-2.94.35-.31.17-.66.52-.7.98v.03l1.61 2.98a.7.7 0 010 .63l-1.6 2.94.17.14c.24.2.7.24.94.17a.66.66 0 01.39-1.26c.63.1 1.08.53 1.15 1.05.11.56-.24 1.05-.87 1.4a2.1 2.1 0 01-.95.18 2.63 2.63 0 01-1.5-.5c-.07 0-.1.08-.14.11a2.63 2.63 0 01-1.4.39c-.35 0-.7-.07-.95-.21-.63-.32-.94-.81-.87-1.37.07-.52.52-.94 1.15-1.05a.66.66 0 01.39 1.26c.28.07.7 0 .94-.14l.18-.17-1.61-2.94a.7.7 0 010-.63l1.64-2.98v-.03c-.07-.5-.42-.81-.73-1.05-.88-.53-2.14-.7-2.94-.28-.53.28-.7.56-.7.73s.31.42.8.53a.66.66 0 01-.28 1.29c-1.05-.21-1.75-.84-1.85-1.64-.04-.35 0-1.37 1.43-2.1a4.55 4.55 0 014.9.94l.67-.56a4.55 4.55 0 014.27-.38c1.47.73 1.5 1.75 1.43 2.1-.1.8-.8 1.43-1.82 1.64a.7.7 0 01-.14 0zm-4.38 3.81l-.95-1.75.95-1.75.91 1.75zm0 5.64c-1.12 0-2.2-.11-3.26-.35-.1 3.78-.7 7-1.75 9.48 3.3.21 6.65.21 9.98 0-1.05-2.45-1.68-5.7-1.75-9.48-1.05.24-2.14.35-3.22.35zm-2.17 3.53l1.05 1.02-1.82 1.12a.66.66 0 000 1.15l2.59 1.58a.66.66 0 00.7 0l2.59-1.58a.66.66 0 000-1.15l-1.89-1.09 1.05-1.01a.7.7 0 000-.98l-1.68-1.58c-.28-.24-.67-.24-.91 0l-1.75 1.58a.66.66 0 000 .98zm1.4-.49l.77.7.7-.7-.7-.7zm-.56 3.22l1.33.8 1.33-.8-1.33-.84zM3.25 34.72a28 28 0 0113.2 5.95 27.79 27.79 0 0113.16-5.95l-1.75-6.02A83.3 83.3 0 015 28.7zm15.37-.31l-.25-.04a1.91 1.91 0 01-1.19-1.47c-.14-.8.21-1.61.88-2.17.6-.52 1.4-.6 2.2-.24.46.24.88.59 1.16 1.05a3.9 3.9 0 013.04-1.23c1.51.07 2.7.84 2.87 1.93.21.98-.17 1.82-.98 2.24-.8.38-1.85.28-2.41-.32a.67.67 0 11.98-.91c.14.14.52.18.8 0 .28-.1.39-.38.32-.77-.07-.38-.7-.8-1.61-.84a2.45 2.45 0 00-2.59 1.89c-.67 2.42-2.35 4.24-3.92 4.3h-.07c-.56 0-1.05-.2-1.4-.59a1.92 1.92 0 01-1.4.6h-.1c-1.58-.07-3.26-1.9-3.93-4.31a2.45 2.45 0 00-2.55-1.89c-.91 0-1.58.46-1.65.84-.07.39.04.67.35.8.28.15.63.11.77-.03a.67.67 0 01.98.91c-.56.6-1.54.7-2.38.32-.8-.42-1.19-1.26-1.05-2.24.21-1.05 1.4-1.86 2.91-1.93a3.89 3.89 0 013.08 1.23 2.8 2.8 0 011.15-1.05c.77-.35 1.61-.28 2.21.24.66.56.98 1.4.84 2.17-.1.7-.56 1.23-1.19 1.47a.66.66 0 01-.84-.42.7.7 0 01.35-.87c.21-.07.35-.21.35-.42a1 1 0 00-.35-.95.7.7 0 00-.8-.03 1.68 1.68 0 00-.88 1.54c.6 2.1 1.92 3.22 2.7 3.25.13 0 .52 0 .8-.77a.66.66 0 011.26 0c.24.77.63.77.77.77.77 0 2.1-1.15 2.7-3.25 0-.77-.43-1.33-.88-1.54-.18-.11-.49-.21-.74 0-.35.28-.49.63-.42.98.04.2.14.35.35.42a.66.66 0 01-.24 1.29z"/>
  </g>
</svg>